# xmcd
#
# Track frame offsets:
#	150
#	12858
#	28881
#	47492
#	67208
#	88062
#	106058
#	118584
#	135902
#	155726
#	168953
#	183869
#
# Disc length: 2721 seconds
#
# Revision: 1
# Processed by: cddbd v1.5.2PL0 Copyright (c) Steve Scherf et al.
# Submitted via: audiograbber 1.83.01
#
DISCID=960a9f0c
DTITLE=Amy Winehouse - Liones - Hidden Treasures
DYEAR=2011
DGENRE=Blues
TTITLE0=Our Day Will Come
TTITLE1=Brtween The Cheats
TTITLE2=Tears Dry (Original)
TTITLE3=Will You Still Love Me Tommorrow (2011)
TTITLE4=Like Smoke feat. Nas
TTITLE5=Valerie (68 Version)
TTITLE6=The Girl From Ipanema
TTITLE7=Half Time
TTITLE8=Wake Up Alone (Original Recording)
TTITLE9=Best Friends,Right
TTITLE10=Body And Soul with Tony Bennett
TTITLE11=A Song For You
EXTD=
EXTT0=
EXTT1=
EXTT2=
EXTT3=
EXTT4=
EXTT5=
EXTT6=
EXTT7=
EXTT8=
EXTT9=
EXTT10=
EXTT11=
PLAYORDER=
